<svg viewBox="0 0 64 64" xmlns="http://www.w3.org/2000/svg">
  <defs>
    <linearGradient id="grad1" x1="0%" y1="0%" x2="100%" y2="100%">
      <stop offset="0%" style="stop-color:#2563EB;stop-opacity:1" />
      <stop offset="50%" style="stop-color:#0EA5E9;stop-opacity:1" />
      <stop offset="100%" style="stop-color:#38BDF8;stop-opacity:1" />
    </linearGradient>
    <linearGradient id="grad2" x1="100%" y1="0%" x2="0%" y2="100%">
      <stop offset="0%" style="stop-color:#0EA5E9;stop-opacity:1" />
      <stop offset="100%" style="stop-color:#2563EB;stop-opacity:1" />
    </linearGradient>
    <filter id="shadow">
      <feDropShadow dx="0" dy="2" stdDeviation="3" flood-opacity="0.3"/>
    </filter>
  </defs>
  <circle cx="32" cy="32" r="32" fill="url(#grad1)"/>
  <circle cx="32" cy="32" r="29" fill="#0F172A"/>
  <g filter="url(#shadow)">
    <path d="M 18 12 L 24 22 L 24 28 L 20 28 L 20 22 L 14 12 Q 12 10 14 10 L 18 10 Q 19 10 18 12" 
          fill="url(#grad1)" stroke="#38BDF8" stroke-width="1.5" stroke-linejoin="round"/>
  </g>
  <g filter="url(#shadow)">
    <path d="M 40 10 L 40 28 L 36 28 L 36 12 L 48 12 Q 52 12 54 16 Q 56 20 54 24 Q 52 28 48 28 L 40 28" 
          fill="url(#grad2)" stroke="#2563EB" stroke-width="1.5" stroke-linejoin="round"/>
  </g>
  <circle cx="32" cy="32" r="26" fill="none" stroke="url(#grad1)" stroke-width="1" opacity="0.4" stroke-dasharray="4 2"/>
  <rect x="10" y="10" width="2.5" height="6" fill="#0EA5E9" opacity="0.7" rx="1"/>
  <rect x="10" y="10" width="6" height="2.5" fill="#0EA5E9" opacity="0.7" rx="1"/>
  <rect x="51.5" y="51.5" width="2.5" height="6" fill="#2563EB" opacity="0.7" rx="1"/>
  <rect x="45.5" y="51.5" width="6" height="2.5" fill="#2563EB" opacity="0.7" rx="1"/>
  <circle cx="32" cy="8" r="1.5" fill="#38BDF8" opacity="0.6"/>
  <circle cx="56" cy="32" r="1.5" fill="#0EA5E9" opacity="0.6"/>
  <circle cx="32" cy="56" r="1.5" fill="#2563EB" opacity="0.6"/>
  <circle cx="8" cy="32" r="1.5" fill="#38BDF8" opacity="0.6"/>
</svg>
